<?xml version="1.0" encoding="UTF-8" standalone="no"?>
<svg
   xmlns:dc="http://purl.org/dc/elements/1.1/"
   xmlns:cc="http://creativecommons.org/ns#"
   xmlns:rdf="http://www.w3.org/1999/02/22-rdf-syntax-ns#"
   xmlns:svg="http://www.w3.org/2000/svg"
   xmlns="http://www.w3.org/2000/svg"
   xmlns:sodipodi="http://sodipodi.sourceforge.net/DTD/sodipodi-0.dtd"
   xmlns:inkscape="http://www.inkscape.org/namespaces/inkscape"
   version="1.1"
   width="382.7mm"
   height="179.7mm"
   viewBox=" 0 0 1356.024737 636.732807"
   id="svg3226"
   inkscape:version="0.48.5 r10040"
   sodipodi:docname="caseplans(1).svg">
  <metadata
     id="metadata3256">
    <rdf:RDF>
      <cc:Work
         rdf:about="">
        <dc:format>image/svg+xml</dc:format>
        <dc:type
           rdf:resource="http://purl.org/dc/dcmitype/StillImage" />
        <dc:title></dc:title>
      </cc:Work>
    </rdf:RDF>
  </metadata>
  <defs
     id="defs3254" />
  <sodipodi:namedview
     pagecolor="#ffffff"
     bordercolor="#666666"
     borderopacity="1"
     objecttolerance="10"
     gridtolerance="10"
     guidetolerance="10"
     inkscape:pageopacity="0"
     inkscape:pageshadow="2"
     inkscape:window-width="640"
     inkscape:window-height="480"
     id="namedview3252"
     showgrid="false"
     inkscape:zoom="0.34103227"
     inkscape:cx="713.37978"
     inkscape:cy="286.32235"
     inkscape:window-x="0"
     inkscape:window-y="0"
     inkscape:window-maximized="0"
     inkscape:current-layer="svg3226" />
  <!-- Front-->
  <g
     transform="translate(22.500018499999996, 22.500018499999996) "
     id="g3228">
    <polygon
       style="stroke:#000000; fill:none; stroke-width:0.90000074"
       points="0, 0 44.291375, 0 44.291375, 17.716549999999998 88.58275, 17.716549999999998 88.58275, 0 124.01585, 0 124.01585, 17.716549999999998 159.44895, 17.716549999999998 159.44895, 0 194.88205, 0 194.88205, 17.716549999999998 230.31515, 17.716549999999998 230.31515, 0 265.74825, 0 265.74825, 17.716549999999998 301.18134999999995, 17.716549999999998 301.18134999999995, 0 336.61445, 0 336.61445, 17.716549999999998 372.04755, 17.716549999999998 372.04755, 0 407.48064999999997, 0 407.48064999999997, 17.716549999999998 451.7720249999999, 17.716549999999998 451.7720249999999, 0 496.0634, 0 496.0634, 59.3504425 478.34685, 59.3504425 478.34685, 118.700885 496.0634, 118.700885 496.0634, 154.133985 478.34685, 154.133985 478.34685, 213.4844275 496.0634, 213.4844275 496.06339999999994, 272.83487 451.7720249999999, 272.83487 451.7720249999999, 255.11832000000004 407.48064999999997, 255.11832000000004 407.48064999999997, 272.83487 372.04755, 272.83487 372.04755, 255.11832000000004 336.61445, 255.11832000000004 336.61445, 272.83487 301.18134999999995, 272.83487 301.18134999999995, 255.11832000000004 265.74825, 255.11832000000004 265.74825, 272.83487 230.31515, 272.83487 230.31515, 255.11832000000004 194.88205, 255.11832000000004 194.88205, 272.83487 159.44895, 272.83487 159.44895, 255.11832000000004 124.01585, 255.11832000000004 124.01585, 272.83487 88.58275, 272.83487 88.58275, 255.11832000000004 44.291375, 255.11832000000004 44.291375, 272.83487 0, 272.83487 0, 213.4844275 17.716549999999998, 213.4844275 17.716549999999998, 154.133985 0, 154.133985 0, 118.700885 17.716549999999998, 118.700885 17.716549999999998, 59.3504425 0, 59.3504425 "
       id="polygon3230" />
  </g>
  <!-- Back-->
  <g
     transform="translate(518.5634185, 22.500018499999996) "
     id="g3232">
    <polygon
       style="stroke:#000000; fill:none; stroke-width:0.90000074"
       points="0, 0 44.291375, 0 44.291375, 17.716549999999998 88.58275, 17.716549999999998 88.58275, 0 124.01585, 0 124.01585, 17.716549999999998 159.44895, 17.716549999999998 159.44895, 0 194.88205, 0 194.88205, 17.716549999999998 230.31515, 17.716549999999998 230.31515, 0 265.74825, 0 265.74825, 17.716549999999998 301.18134999999995, 17.716549999999998 301.18134999999995, 0 336.61445, 0 336.61445, 17.716549999999998 372.04755, 17.716549999999998 372.04755, 0 407.48064999999997, 0 407.48064999999997, 17.716549999999998 451.7720249999999, 17.716549999999998 451.7720249999999, 0 496.0634, 0 496.0634, 59.3504425 478.34685, 59.3504425 478.34685, 118.700885 496.0634, 118.700885 496.0634, 154.133985 478.34685, 154.133985 478.34685, 213.4844275 496.0634, 213.4844275 496.06339999999994, 272.83487 451.7720249999999, 272.83487 451.7720249999999, 255.11832000000004 407.48064999999997, 255.11832000000004 407.48064999999997, 272.83487 372.04755, 272.83487 372.04755, 255.11832000000004 336.61445, 255.11832000000004 336.61445, 272.83487 301.18134999999995, 272.83487 301.18134999999995, 255.11832000000004 265.74825, 255.11832000000004 265.74825, 272.83487 230.31515, 272.83487 230.31515, 255.11832000000004 194.88205, 255.11832000000004 194.88205, 272.83487 159.44895, 272.83487 159.44895, 255.11832000000004 124.01585, 255.11832000000004 124.01585, 272.83487 88.58275, 272.83487 88.58275, 255.11832000000004 44.291375, 255.11832000000004 44.291375, 272.83487 0, 272.83487 0, 213.4844275 17.716549999999998, 213.4844275 17.716549999999998, 154.133985 0, 154.133985 0, 118.700885 17.716549999999998, 118.700885 17.716549999999998, 59.3504425 0, 59.3504425 "
       id="polygon3234" />
  </g>
  <!-- Left-->
  <g
     transform="translate(1014.6268185, 22.500018499999996) "
     id="g3236">
    <polygon
       style="stroke:#000000; fill:none; stroke-width:0.90000074"
       points="17.716549999999998, 0 53.14965, 0 53.14965, 17.716549999999998 106.2993, 17.716549999999998 106.2993, 0 141.73239999999998, 0 141.73239999999998, 17.716549999999998 177.1655, 17.716549999999998 177.1655, 0 212.59859999999998, 0 212.59859999999998, 17.716549999999998 265.74825, 17.716549999999998 265.74825, 0 301.18135, 0 301.18135, 59.3504425 318.8979, 59.3504425 318.8979, 118.700885 301.18135, 118.700885 301.18135, 154.133985 318.8979, 154.133985 318.8979, 213.4844275 301.18135, 213.4844275 301.18135, 272.83487 265.74825, 272.83487 265.74825, 255.11832000000004 212.59859999999998, 255.11832000000004 212.59859999999998, 272.83487 177.1655, 272.83487 177.1655, 255.11832000000004 141.73239999999998, 255.11832000000004 141.73239999999998, 272.83487 106.2993, 272.83487 106.2993, 255.11832000000004 53.14965, 255.11832000000004 53.14965, 272.83487 17.716549999999998, 272.83487 17.716549999999998, 213.4844275 0, 213.4844275 0, 154.133985 17.716549999999998, 154.133985 17.716549999999998, 118.700885 0, 118.700885 0, 59.3504425 17.716549999999998, 59.3504425 "
       id="polygon3238" />
  </g>
  <!-- Right-->
  <g
     transform="translate(1014.6268185, 295.3348885) "
     id="g3240">
    <polygon
       style="stroke:#000000; fill:none; stroke-width:0.90000074"
       points="17.716549999999998, 0 53.14965, 0 53.14965, 17.716549999999998 106.2993, 17.716549999999998 106.2993, 0 141.73239999999998, 0 141.73239999999998, 17.716549999999998 177.1655, 17.716549999999998 177.1655, 0 212.59859999999998, 0 212.59859999999998, 17.716549999999998 265.74825, 17.716549999999998 265.74825, 0 301.18135, 0 301.18135, 59.3504425 318.8979, 59.3504425 318.8979, 118.700885 301.18135, 118.700885 301.18135, 154.133985 318.8979, 154.133985 318.8979, 213.4844275 301.18135, 213.4844275 301.18135, 272.83487 265.74825, 272.83487 265.74825, 255.11832000000004 212.59859999999998, 255.11832000000004 212.59859999999998, 272.83487 177.1655, 272.83487 177.1655, 255.11832000000004 141.73239999999998, 255.11832000000004 141.73239999999998, 272.83487 106.2993, 272.83487 106.2993, 255.11832000000004 53.14965, 255.11832000000004 53.14965, 272.83487 17.716549999999998, 272.83487 17.716549999999998, 213.4844275 0, 213.4844275 0, 154.133985 17.716549999999998, 154.133985 17.716549999999998, 118.700885 0, 118.700885 0, 59.3504425 17.716549999999998, 59.3504425 "
       id="polygon3242" />
  </g>
  <!-- Top-->
  <g
     transform="translate(22.500018499999996, 295.3348885) "
     id="g3244">
    <polygon
       style="stroke:#000000; fill:none; stroke-width:0.90000074"
       points="17.716549999999998, 17.716549999999998 44.291375, 17.716549999999998 44.291375, 0 88.58275, 0 88.58275, 17.716549999999998 124.01585, 17.716549999999998 124.01585, 0 159.44895, 0 159.44895, 17.716549999999998 194.88205, 17.716549999999998 194.88205, 0 230.31515, 0 230.31515, 17.716549999999998 265.74825, 17.716549999999998 265.74825, 0 301.18134999999995, 0 301.18134999999995, 17.716549999999998 336.61445, 17.716549999999998 336.61445, 0 372.04755, 0 372.04755, 17.716549999999998 407.48064999999997, 17.716549999999998 407.48064999999997, 0 451.7720249999999, 0 451.7720249999999, 17.716549999999998 478.34685, 17.716549999999998 478.34685, 53.14965 496.0634, 53.14965 496.0634, 106.2993 478.34685, 106.2993 478.34685, 141.73239999999998 496.0634, 141.73239999999998 496.0634, 177.1655 478.34685, 177.1655 478.34685, 212.59859999999998 496.0634, 212.59859999999998 496.0634, 265.74825 478.34685, 265.74825 478.34684999999996, 301.18135 451.7720249999999, 301.18135 451.7720249999999, 318.8979 407.48064999999997, 318.8979 407.48064999999997, 301.18135 372.04755, 301.18135 372.04755, 318.8979 336.61445, 318.8979 336.61445, 301.18135 301.18134999999995, 301.18135 301.18134999999995, 318.8979 265.74825, 318.8979 265.74825, 301.18135 230.31515, 301.18135 230.31515, 318.8979 194.88205, 318.8979 194.88205, 301.18135 159.44895, 301.18135 159.44895, 318.8979 124.01585, 318.8979 124.01585, 301.18135 88.58275, 301.18135 88.58275, 318.8979 44.291375, 318.8979 44.291375, 301.18135 17.716549999999998, 301.18135 17.716549999999998, 265.74825 0, 265.74825 0, 212.59859999999998 17.716549999999998, 212.59859999999998 17.716549999999998, 177.1655 0, 177.1655 0, 141.73239999999998 17.716549999999998, 141.73239999999998 17.716549999999998, 106.2993 0, 106.2993 0, 53.14965 17.716549999999998, 53.14965 "
       id="polygon3246" />
  </g>
  <!-- Bottom-->
  <g
     transform="translate(518.5634185, 295.3348885) "
     id="g3248">
    <polygon
       style="stroke:#000000; fill:none; stroke-width:0.90000074"
       points="17.716549999999998, 17.716549999999998 44.291375, 17.716549999999998 44.291375, 0 88.58275, 0 88.58275, 17.716549999999998 124.01585, 17.716549999999998 124.01585, 0 159.44895, 0 159.44895, 17.716549999999998 194.88205, 17.716549999999998 194.88205, 0 230.31515, 0 230.31515, 17.716549999999998 265.74825, 17.716549999999998 265.74825, 0 301.18134999999995, 0 301.18134999999995, 17.716549999999998 336.61445, 17.716549999999998 336.61445, 0 372.04755, 0 372.04755, 17.716549999999998 407.48064999999997, 17.716549999999998 407.48064999999997, 0 451.7720249999999, 0 451.7720249999999, 17.716549999999998 478.34685, 17.716549999999998 478.34685, 53.14965 496.0634, 53.14965 496.0634, 106.2993 478.34685, 106.2993 478.34685, 141.73239999999998 496.0634, 141.73239999999998 496.0634, 177.1655 478.34685, 177.1655 478.34685, 212.59859999999998 496.0634, 212.59859999999998 496.0634, 265.74825 478.34685, 265.74825 478.34684999999996, 301.18135 451.7720249999999, 301.18135 451.7720249999999, 318.8979 407.48064999999997, 318.8979 407.48064999999997, 301.18135 372.04755, 301.18135 372.04755, 318.8979 336.61445, 318.8979 336.61445, 301.18135 301.18134999999995, 301.18135 301.18134999999995, 318.8979 265.74825, 318.8979 265.74825, 301.18135 230.31515, 301.18135 230.31515, 318.8979 194.88205, 318.8979 194.88205, 301.18135 159.44895, 301.18135 159.44895, 318.8979 124.01585, 318.8979 124.01585, 301.18135 88.58275, 301.18135 88.58275, 318.8979 44.291375, 318.8979 44.291375, 301.18135 17.716549999999998, 301.18135 17.716549999999998, 265.74825 0, 265.74825 0, 212.59859999999998 17.716549999999998, 212.59859999999998 17.716549999999998, 177.1655 0, 177.1655 0, 141.73239999999998 17.716549999999998, 141.73239999999998 17.716549999999998, 106.2993 0, 106.2993 0, 53.14965 17.716549999999998, 53.14965 "
       id="polygon3250" />
  </g>
  <rect
     style="fill:none;stroke:#000000;stroke-width:0.10000008"
     height="28.346479"
     width="28.346479"
     x="749.8866"
     y="103.85094"
     id="rect3123" />
  <circle
     style="fill:none;stroke:#000000;stroke-width:0.1"
     d="m 11.515748,7.0866141 c 0,2.4461431 -1.9829908,4.4291339 -4.4291339,4.4291339 -2.4461431,0 -4.4291339,-1.9829908 -4.4291339,-4.4291339 0,-2.4461431 1.9829908,-4.4291339 4.4291339,-4.4291339 2.4461431,0 4.4291339,1.9829908 4.4291339,4.4291339 z"
     sodipodi:ry="4.4291339"
     sodipodi:rx="4.4291339"
     sodipodi:cy="7.0866141"
     sodipodi:cx="7.0866141"
     cx="7.0866141"
     cy="7.0866141"
     r="4.4291339"
     id="circle3125"
     transform="translate(719.76847,66.646181)" />
  <circle
     style="fill:none;stroke:#000000;stroke-width:0.1"
     d="m 85.925197,7.0866141 c 0,2.4461431 -1.982991,4.4291339 -4.429134,4.4291339 -2.446143,0 -4.429134,-1.9829908 -4.429134,-4.4291339 0,-2.4461431 1.982991,-4.4291339 4.429134,-4.4291339 2.446143,0 4.429134,1.9829908 4.429134,4.4291339 z"
     sodipodi:ry="4.4291339"
     sodipodi:rx="4.4291339"
     sodipodi:cy="7.0866141"
     sodipodi:cx="81.496063"
     cx="81.496063"
     cy="7.0866141"
     r="4.4291339"
     id="circle3127"
     transform="translate(719.76847,66.646181)" />
  <circle
     style="fill:none;stroke:#000000;stroke-width:0.1"
     d="m 11.515748,51.377953 c 0,2.446143 -1.9829908,4.429133 -4.4291339,4.429133 -2.4461431,0 -4.4291339,-1.98299 -4.4291339,-4.429133 0,-2.446144 1.9829908,-4.429134 4.4291339,-4.429134 2.4461431,0 4.4291339,1.98299 4.4291339,4.429134 z"
     sodipodi:ry="4.4291339"
     sodipodi:rx="4.4291339"
     sodipodi:cy="51.377953"
     sodipodi:cx="7.0866141"
     cx="7.0866141"
     cy="51.377953"
     r="4.4291339"
     id="circle3129"
     transform="translate(719.76847,66.646181)" />
  <circle
     style="fill:none;stroke:#000000;stroke-width:0.1"
     d="m 85.925197,51.377953 c 0,2.446143 -1.982991,4.429133 -4.429134,4.429133 -2.446143,0 -4.429134,-1.98299 -4.429134,-4.429133 0,-2.446144 1.982991,-4.429134 4.429134,-4.429134 2.446143,0 4.429134,1.98299 4.429134,4.429134 z"
     sodipodi:ry="4.4291339"
     sodipodi:rx="4.4291339"
     sodipodi:cy="51.377953"
     sodipodi:cx="81.496063"
     cx="81.496063"
     cy="51.377953"
     r="4.4291339"
     id="circle3131"
     transform="translate(719.76847,66.646181)" />
  <circle
     style="fill:none;stroke:#000000;stroke-width:0.1"
     d="m 15.059055,10.629921 c 0,2.446143 -1.982991,4.429134 -4.429134,4.429134 -2.4461431,0 -4.4291339,-1.982991 -4.4291339,-4.429134 0,-2.4461431 1.9829908,-4.4291339 4.4291339,-4.4291339 2.446143,0 4.429134,1.9829908 4.429134,4.4291339 z"
     sodipodi:ry="4.4291339"
     sodipodi:rx="4.4291339"
     sodipodi:cy="10.629921"
     sodipodi:cx="10.629921"
     cx="10.629921"
     cy="10.629921"
     r="4.4291339"
     id="circle3033"
     transform="translate(1128.5365,58.390152)" />
  <circle
     style="fill:none;stroke:#000000;stroke-width:0.1"
     d="m 85.925197,10.629921 c 0,2.446143 -1.982991,4.429134 -4.429134,4.429134 -2.446143,0 -4.429134,-1.982991 -4.429134,-4.429134 0,-2.4461431 1.982991,-4.4291339 4.429134,-4.4291339 2.446143,0 4.429134,1.9829908 4.429134,4.4291339 z"
     sodipodi:ry="4.4291339"
     sodipodi:rx="4.4291339"
     sodipodi:cy="10.629921"
     sodipodi:cx="81.496063"
     cx="81.496063"
     cy="10.629921"
     r="4.4291339"
     id="circle3035"
     transform="translate(1128.5365,58.390152)" />
  <text
     xml:space="preserve"
     style="font-size:30.78323746px;font-style:normal;font-weight:normal;line-height:125%;letter-spacing:0px;word-spacing:0px;fill:none;stroke:#000000;stroke-width:0.7695809;font-family:Sans"
     x="1139.5381"
     y="109.65413"
     id="text3091"
     sodipodi:linespacing="125%"
     transform="scale(1.0041665,0.99585079)"><tspan
       sodipodi:role="line"
       id="tspan3093"
       x="1139.5381"
       y="109.65413"
       style="stroke-width:0.7695809">GPS</tspan></text>
  <circle
     style="fill:none;stroke:#000000;stroke-width:0.1"
     d="m 13.287402,10.629921 c 0,2.446143 -1.982991,4.429134 -4.4291342,4.429134 -2.4461431,0 -4.4291339,-1.982991 -4.4291339,-4.429134 0,-2.4461431 1.9829908,-4.4291339 4.4291339,-4.4291339 2.4461432,0 4.4291342,1.9829908 4.4291342,4.4291339 z"
     sodipodi:ry="4.4291339"
     sodipodi:rx="4.4291339"
     sodipodi:cy="10.629921"
     sodipodi:cx="8.8582678"
     cx="8.8582678"
     cy="10.629921"
     r="4.4291339"
     id="circle3074"
     transform="translate(1133.4439,349.08762)" />
  <circle
     style="fill:none;stroke:#000000;stroke-width:0.1"
     d="m 77.066928,10.629921 c 0,2.446143 -1.98299,4.429134 -4.429134,4.429134 -2.446143,0 -4.429133,-1.982991 -4.429133,-4.429134 0,-2.4461431 1.98299,-4.4291339 4.429133,-4.4291339 2.446144,0 4.429134,1.9829908 4.429134,4.4291339 z"
     sodipodi:ry="4.4291339"
     sodipodi:rx="4.4291339"
     sodipodi:cy="10.629921"
     sodipodi:cx="72.637794"
     cx="72.637794"
     cy="10.629921"
     r="4.4291339"
     id="circle3076"
     transform="translate(1133.4439,349.08762)" />
  <text
     xml:space="preserve"
     style="font-size:30.50930023px;font-style:normal;font-weight:normal;line-height:125%;letter-spacing:0px;word-spacing:0px;fill:none;stroke:#000000;stroke-width:0.76273251;font-family:Sans"
     x="1076.8535"
     y="422.17853"
     id="text3095"
     sodipodi:linespacing="125%"
     transform="scale(1.052386,0.95022169)"><tspan
       sodipodi:role="line"
       id="tspan3097"
       x="1076.8535"
       y="422.17853"
       style="stroke-width:0.76273251">Accel</tspan></text>
  <circle
     style="fill:none;stroke:#000000;stroke-width:0.1"
     d="m 18.159448,12.401574 c 0,3.179986 -2.577888,5.757874 -5.757874,5.757874 -3.1799859,0 -5.7578739,-2.577888 -5.7578739,-5.757874 0,-3.1799859 2.577888,-5.7578739 5.7578739,-5.7578739 3.179986,0 5.757874,2.577888 5.757874,5.7578739 z"
     sodipodi:ry="5.757874"
     sodipodi:rx="5.757874"
     sodipodi:cy="12.401574"
     sodipodi:cx="12.401574"
     cx="12.401574"
     cy="12.401574"
     r="5.757874"
     id="circle3176"
     transform="translate(593.95638,333.28712)" />
  <circle
     style="fill:none;stroke:#000000;stroke-width:0.1"
     d="m 223.67125,12.401574 c 0,3.179986 -2.57789,5.757874 -5.75787,5.757874 -3.17999,0 -5.75788,-2.577888 -5.75788,-5.757874 0,-3.1799859 2.57789,-5.7578739 5.75788,-5.7578739 3.17998,0 5.75787,2.577888 5.75787,5.7578739 z"
     sodipodi:ry="5.757874"
     sodipodi:rx="5.757874"
     sodipodi:cy="12.401574"
     sodipodi:cx="217.91338"
     cx="217.91338"
     cy="12.401574"
     r="5.757874"
     id="circle3178"
     transform="translate(593.95638,333.28712)" />
  <circle
     style="fill:none;stroke:#000000;stroke-width:0.1"
     d="m 18.159448,186.02362 c 0,3.17999 -2.577888,5.75787 -5.757874,5.75787 -3.1799859,0 -5.7578739,-2.57788 -5.7578739,-5.75787 0,-3.17999 2.577888,-5.75787 5.7578739,-5.75787 3.179986,0 5.757874,2.57788 5.757874,5.75787 z"
     sodipodi:ry="5.757874"
     sodipodi:rx="5.757874"
     sodipodi:cy="186.02362"
     sodipodi:cx="12.401574"
     cx="12.401574"
     cy="186.02362"
     r="5.757874"
     id="circle3180"
     transform="translate(593.95638,333.28712)" />
  <circle
     style="fill:none;stroke:#000000;stroke-width:0.1"
     d="m 223.67125,186.02362 c 0,3.17999 -2.57789,5.75787 -5.75787,5.75787 -3.17999,0 -5.75788,-2.57788 -5.75788,-5.75787 0,-3.17999 2.57789,-5.75787 5.75788,-5.75787 3.17998,0 5.75787,2.57788 5.75787,5.75787 z"
     sodipodi:ry="5.757874"
     sodipodi:rx="5.757874"
     sodipodi:cy="186.02362"
     sodipodi:cx="217.91338"
     cx="217.91338"
     cy="186.02362"
     r="5.757874"
     id="circle3182"
     transform="translate(593.95638,333.28712)" />
  <text
     xml:space="preserve"
     style="font-size:40.00003052px;font-style:normal;font-weight:normal;line-height:125%;letter-spacing:0px;word-spacing:0px;fill:none;stroke:#000000;stroke-width:1.00000083;font-family:Sans"
     x="677.4043"
     y="448.55563"
     id="text3201"
     sodipodi:linespacing="125%"><tspan
       sodipodi:role="line"
       id="tspan3203"
       x="677.4043"
       y="448.55563"
       style="stroke-width:1.00000083">Rpi</tspan></text>
  <circle
     style="fill:none;stroke:#000000;stroke-width:0.1"
     d="m 17.273621,12.401574 c 0,2.690757 -2.18129,4.872047 -4.872047,4.872047 -2.6907571,0 -4.8720468,-2.18129 -4.8720468,-4.872047 0,-2.6907571 2.1812897,-4.8720468 4.8720468,-4.8720468 2.690757,0 4.872047,2.1812897 4.872047,4.8720468 z"
     sodipodi:ry="4.8720469"
     sodipodi:rx="4.8720469"
     sodipodi:cy="12.401574"
     sodipodi:cx="12.401574"
     cx="12.401574"
     cy="12.401574"
     r="4.8720469"
     id="circle3051"
     transform="matrix(1.799737,0,0,1.7951193,386.35353,124.74313)" />
  <text
     xml:space="preserve"
     style="font-size:31.0533638px;font-style:normal;font-weight:normal;line-height:125%;letter-spacing:0px;word-spacing:0px;fill:#00ffff;fill-opacity:1;stroke:none;font-family:Sans"
     x="386.79318"
     y="180.97023"
     id="text3076"
     sodipodi:linespacing="125%"
     transform="scale(0.91145373,1.0971484)"><tspan
       sodipodi:role="line"
       id="tspan3078"
       x="386.79318"
       y="180.97023">GPS Ant</tspan></text>
  <circle
     style="fill:none;stroke:#000000;stroke-width:0.1"
     d="m 17.273621,12.401574 c 0,2.690757 -2.18129,4.872047 -4.872047,4.872047 -2.6907571,0 -4.8720468,-2.18129 -4.8720468,-4.872047 0,-2.6907571 2.1812897,-4.8720468 4.8720468,-4.8720468 2.690757,0 4.872047,2.1812897 4.872047,4.8720468 z"
     sodipodi:ry="4.8720469"
     sodipodi:rx="4.8720469"
     sodipodi:cy="12.401574"
     sodipodi:cx="12.401574"
     cx="12.401574"
     cy="12.401574"
     r="4.8720469"
     id="circle3051-1"
     transform="matrix(3.5994741,0,0,3.5902387,82.883641,109.2264)" />
  <text
     xml:space="preserve"
     style="font-size:25.35923195px;font-style:normal;font-weight:normal;line-height:125%;letter-spacing:0px;word-spacing:0px;fill:#00ffff;fill-opacity:1;stroke:none;font-family:Sans"
     x="70.765831"
     y="126.04791"
     id="text3098"
     sodipodi:linespacing="125%"><tspan
       sodipodi:role="line"
       id="tspan3100"
       x="70.765831"
       y="126.04791">RPi Power</tspan></text>
</svg>
