<?xml version="1.0" encoding="UTF-8" standalone="no"?>
<svg
   xmlns:dc="http://purl.org/dc/elements/1.1/"
   xmlns:cc="http://creativecommons.org/ns#"
   xmlns:rdf="http://www.w3.org/1999/02/22-rdf-syntax-ns#"
   xmlns:svg="http://www.w3.org/2000/svg"
   xmlns="http://www.w3.org/2000/svg"
   xmlns:sodipodi="http://sodipodi.sourceforge.net/DTD/sodipodi-0.dtd"
   xmlns:inkscape="http://www.inkscape.org/namespaces/inkscape"
   version="1.1"
   width="15in"
   height="7in"
   viewBox=" 0 0 1350 630"
   id="svg2"
   inkscape:version="0.48.5 r10040"
   sodipodi:docname="caseplans.svg">
  <metadata
     id="metadata32">
    <rdf:RDF>
      <cc:Work
         rdf:about="">
        <dc:format>image/svg+xml</dc:format>
        <dc:type
           rdf:resource="http://purl.org/dc/dcmitype/StillImage" />
      </cc:Work>
    </rdf:RDF>
  </metadata>
  <defs
     id="defs30" />
  <sodipodi:namedview
     pagecolor="#ffffff"
     bordercolor="#666666"
     borderopacity="1"
     objecttolerance="10"
     gridtolerance="10"
     guidetolerance="10"
     inkscape:pageopacity="0"
     inkscape:pageshadow="2"
     inkscape:window-width="1059"
     inkscape:window-height="645"
     id="namedview28"
     showgrid="false"
     inkscape:zoom="0.66888889"
     inkscape:cx="675"
     inkscape:cy="315"
     inkscape:window-x="0"
     inkscape:window-y="0"
     inkscape:window-maximized="0"
     inkscape:current-layer="svg2"
     showguides="true"
     inkscape:guide-bbox="true" />
  <!-- Front-->
  <g
     transform="translate(22.5, 22.5) "
     id="g4">
    <polygon
       style="stroke:#000000; fill:none; stroke-width:0.9"
       points="0, 0 71.028, 0 71.028, 21.24 135, 21.24 135, 0 183.528, 0 183.528, 21.24 225, 21.24 225, 0 273.528, 0 273.528, 21.24 315, 21.24 315, 0 363.528, 0 363.528, 21.24 427.5, 21.24 427.5, 0 498.528, 0 498.528, 59.778 477.288, 59.778 477.288, 112.5 498.528, 112.5 498.528, 161.028 477.288, 161.028 477.288, 213.75 498.528, 213.75 498.528, 273.528 427.5, 273.528 427.5, 252.288 363.528, 252.288 363.528, 273.528 315, 273.528 315, 252.288 273.528, 252.288 273.528, 273.528 225, 273.528 225, 252.288 183.528, 252.288 183.528, 273.528 135, 273.528 135, 252.288 71.028, 252.288 71.028, 273.528 0, 273.528 0, 213.75 21.24, 213.75 21.24, 161.028 0, 161.028 0, 112.5 21.24, 112.5 21.24, 59.778 0, 59.778 "
       id="polygon6" />
  </g>
  <!-- Back-->
  <g
     transform="translate(521.028, 22.5) "
     id="g8">
    <polygon
       style="stroke:#000000; fill:none; stroke-width:0.9"
       points="0, 0 71.028, 0 71.028, 21.24 135, 21.24 135, 0 183.528, 0 183.528, 21.24 225, 21.24 225, 0 273.528, 0 273.528, 21.24 315, 21.24 315, 0 363.528, 0 363.528, 21.24 427.5, 21.24 427.5, 0 498.528, 0 498.528, 59.778 477.288, 59.778 477.288, 112.5 498.528, 112.5 498.528, 161.028 477.288, 161.028 477.288, 213.75 498.528, 213.75 498.528, 273.528 427.5, 273.528 427.5, 252.288 363.528, 252.288 363.528, 273.528 315, 273.528 315, 252.288 273.528, 252.288 273.528, 273.528 225, 273.528 225, 252.288 183.528, 252.288 183.528, 273.528 135, 273.528 135, 252.288 71.028, 252.288 71.028, 273.528 0, 273.528 0, 213.75 21.24, 213.75 21.24, 161.028 0, 161.028 0, 112.5 21.24, 112.5 21.24, 59.778 0, 59.778 "
       id="polygon10" />
  </g>
  <!-- Left-->
  <g
     transform="translate(1019.556, 22.5) "
     id="g12">
    <polygon
       style="stroke:#000000; fill:none; stroke-width:0.9"
       points="21.24, 0 71.028, 0 71.028, 21.24 135, 21.24 135, 0 183.528, 0 183.528, 21.24 247.5, 21.24 247.5, 0 297.288, 0 297.288, 56.25 318.528, 56.25 318.528, 116.028 297.288, 116.028 297.288, 157.5 318.528, 157.5 318.528, 217.278 297.288, 217.278 297.288, 273.528 247.5, 273.528 247.5, 252.288 183.528, 252.288 183.528, 273.528 135, 273.528 135, 252.288 71.028, 252.288 71.028, 273.528 21.24, 273.528 21.24, 217.278 0, 217.278 0, 157.5 21.24, 157.5 21.24, 116.028 0, 116.028 0, 56.25 21.24, 56.25 "
       id="polygon14" />
  </g>
  <!-- Right-->
  <g
     transform="translate(1019.556, 296.028) "
     id="g16">
    <polygon
       style="stroke:#000000; fill:none; stroke-width:0.9"
       points="21.24, 0 71.028, 0 71.028, 21.24 135, 21.24 135, 0 183.528, 0 183.528, 21.24 247.5, 21.24 247.5, 0 297.288, 0 297.288, 56.25 318.528, 56.25 318.528, 116.028 297.288, 116.028 297.288, 157.5 318.528, 157.5 318.528, 217.278 297.288, 217.278 297.288, 273.528 247.5, 273.528 247.5, 252.288 183.528, 252.288 183.528, 273.528 135, 273.528 135, 252.288 71.028, 252.288 71.028, 273.528 21.24, 273.528 21.24, 217.278 0, 217.278 0, 157.5 21.24, 157.5 21.24, 116.028 0, 116.028 0, 56.25 21.24, 56.25 "
       id="polygon18" />
  </g>
  <!-- Top-->
  <g
     transform="translate(22.5, 296.028) "
     id="g20">
    <polygon
       style="stroke:#000000; fill:none; stroke-width:0.9"
       points="21.24, 21.24 67.5, 21.24 67.5, 0 138.528, 0 138.528, 21.24 180, 21.24 180, 0 228.528, 0 228.528, 21.24 270, 21.24 270, 0 318.528, 0 318.528, 21.24 360, 21.24 360, 0 431.028, 0 431.028, 21.24 477.288, 21.24 477.288, 67.5 498.528, 67.5 498.528, 138.528 477.288, 138.528 477.288, 180 498.528, 180 498.528, 251.028 477.288, 251.028 477.288, 297.288 431.028, 297.288 431.028, 318.528 360, 318.528 360, 297.288 318.528, 297.288 318.528, 318.528 270, 318.528 270, 297.288 228.528, 297.288 228.528, 318.528 180, 318.528 180, 297.288 138.528, 297.288 138.528, 318.528 67.5, 318.528 67.5, 297.288 21.24, 297.288 21.24, 251.028 0, 251.028 0, 180 21.24, 180 21.24, 138.528 0, 138.528 0, 67.5 21.24, 67.5 "
       id="polygon22" />
  </g>
  <!-- Bottom-->
  <g
     transform="translate(521.028, 296.028) "
     id="g24">
    <polygon
       style="stroke:#000000; fill:none; stroke-width:0.9"
       points="21.24, 21.24 67.5, 21.24 67.5, 0 138.528, 0 138.528, 21.24 180, 21.24 180, 0 228.528, 0 228.528, 21.24 270, 21.24 270, 0 318.528, 0 318.528, 21.24 360, 21.24 360, 0 431.028, 0 431.028, 21.24 477.288, 21.24 477.288, 67.5 498.528, 67.5 498.528, 138.528 477.288, 138.528 477.288, 180 498.528, 180 498.528, 251.028 477.288, 251.028 477.288, 297.288 431.028, 297.288 431.028, 318.528 360, 318.528 360, 297.288 318.528, 297.288 318.528, 318.528 270, 318.528 270, 297.288 228.528, 297.288 228.528, 318.528 180, 318.528 180, 297.288 138.528, 297.288 138.528, 318.528 67.5, 318.528 67.5, 297.288 21.24, 297.288 21.24, 251.028 0, 251.028 0, 180 21.24, 180 21.24, 138.528 0, 138.528 0, 67.5 21.24, 67.5 "
       id="polygon26" />
  </g>
  <rect
     style="fill:none;stroke:#000000;stroke-width:1.00000715000000007;stroke-opacity:1"
     id="rect3036"
     width="28.700993"
     height="28.700993"
     x="755.94153"
     y="144.9135" />
  <g
     inkscape:groupmode="layer"
     id="layer1"
     inkscape:label="Text">
    <text
       xml:space="preserve"
       style="font-size:25.5620575px;font-style:normal;font-weight:normal;line-height:125%;letter-spacing:0px;word-spacing:0px;fill:#00ffff;fill-opacity:1;stroke:none;font-family:Sans"
       x="748.26013"
       y="208.11263"
       id="text2999"
       sodipodi:linespacing="125%"
       transform="scale(0.96669008,1.0344577)"><tspan
         sodipodi:role="line"
         id="tspan3001"
         x="748.26013"
         y="208.11263">Camera</tspan></text>
  </g>
  <rect
     style="opacity:0;fill:#00ffff;stroke:#000000;stroke-opacity:1"
     id="rect3003"
     width="85.039368"
     height="88.58268"
     x="483.02753"
     y="-121.37615" />
  <rect
     style="opacity:0;fill:#00ffff;stroke:#000000;stroke-opacity:1"
     id="rect3005"
     width="85.039368"
     height="88.58268"
     x="249.77065"
     y="-179.17432" />
  <rect
     style="opacity:0;fill:#00ffff;stroke:#000000;stroke-opacity:1"
     id="rect3007"
     width="134.17432"
     height="140.36697"
     x="340.59634"
     y="-160.59634" />
  <rect
     style="opacity:0;fill:#00ffff;stroke:#000000;stroke-opacity:1"
     id="rect3009"
     width="85.039368"
     height="103.21101"
     x="689.44952"
     y="107.75229" />
  <rect
     style="opacity:0;fill:#00ffff;stroke:#000000;stroke-width:0.98860717;stroke-opacity:1"
     id="rect3011"
     width="84.050758"
     height="87.59407"
     x="716.27869"
     y="129.32457" />
  <rect
     style="opacity:0;fill:none;stroke:#000000;stroke-width:1.42925322;stroke-opacity:1"
     id="rect3013"
     width="83.610115"
     height="87.153427"
     x="643.07178"
     y="56.751549" />
</svg>
