<?xml version="1.0" encoding="UTF-8" standalone="no"?>
<svg
   xmlns:dc="http://purl.org/dc/elements/1.1/"
   xmlns:cc="http://creativecommons.org/ns#"
   xmlns:rdf="http://www.w3.org/1999/02/22-rdf-syntax-ns#"
   xmlns:svg="http://www.w3.org/2000/svg"
   xmlns="http://www.w3.org/2000/svg"
   xmlns:sodipodi="http://sodipodi.sourceforge.net/DTD/sodipodi-0.dtd"
   xmlns:inkscape="http://www.inkscape.org/namespaces/inkscape"
   version="1.1"
   width="15in"
   height="7in"
   viewBox=" 0 0 1350 630"
   id="svg2"
   inkscape:version="0.48.5 r10040"
   sodipodi:docname="caseplans.svg">
  <metadata
     id="metadata32">
    <rdf:RDF>
      <cc:Work
         rdf:about="">
        <dc:format>image/svg+xml</dc:format>
        <dc:type
           rdf:resource="http://purl.org/dc/dcmitype/StillImage" />
      </cc:Work>
    </rdf:RDF>
  </metadata>
  <defs
     id="defs30" />
  <sodipodi:namedview
     pagecolor="#ffffff"
     bordercolor="#666666"
     borderopacity="1"
     objecttolerance="10"
     gridtolerance="10"
     guidetolerance="10"
     inkscape:pageopacity="0"
     inkscape:pageshadow="2"
     inkscape:window-width="1059"
     inkscape:window-height="645"
     id="namedview28"
     showgrid="false"
     inkscape:zoom="0.66888889"
     inkscape:cx="696.35419"
     inkscape:cy="350.92634"
     inkscape:window-x="0"
     inkscape:window-y="0"
     inkscape:window-maximized="0"
     inkscape:current-layer="svg2"
     showguides="true"
     inkscape:guide-bbox="true" />
  <!-- Front-->
  <g
     transform="translate(22.5, 22.5) "
     id="g4">
    <polygon
       style="stroke:#000000; fill:none; stroke-width:0.9"
       points="0, 0 71.028, 0 71.028, 21.24 135, 21.24 135, 0 183.528, 0 183.528, 21.24 225, 21.24 225, 0 273.528, 0 273.528, 21.24 315, 21.24 315, 0 363.528, 0 363.528, 21.24 427.5, 21.24 427.5, 0 498.528, 0 498.528, 59.778 477.288, 59.778 477.288, 112.5 498.528, 112.5 498.528, 161.028 477.288, 161.028 477.288, 213.75 498.528, 213.75 498.528, 273.528 427.5, 273.528 427.5, 252.288 363.528, 252.288 363.528, 273.528 315, 273.528 315, 252.288 273.528, 252.288 273.528, 273.528 225, 273.528 225, 252.288 183.528, 252.288 183.528, 273.528 135, 273.528 135, 252.288 71.028, 252.288 71.028, 273.528 0, 273.528 0, 213.75 21.24, 213.75 21.24, 161.028 0, 161.028 0, 112.5 21.24, 112.5 21.24, 59.778 0, 59.778 "
       id="polygon6" />
  </g>
  <!-- Back-->
  <g
     transform="translate(521.028, 22.5) "
     id="g8">
    <polygon
       style="stroke:#000000; fill:none; stroke-width:0.9"
       points="0, 0 71.028, 0 71.028, 21.24 135, 21.24 135, 0 183.528, 0 183.528, 21.24 225, 21.24 225, 0 273.528, 0 273.528, 21.24 315, 21.24 315, 0 363.528, 0 363.528, 21.24 427.5, 21.24 427.5, 0 498.528, 0 498.528, 59.778 477.288, 59.778 477.288, 112.5 498.528, 112.5 498.528, 161.028 477.288, 161.028 477.288, 213.75 498.528, 213.75 498.528, 273.528 427.5, 273.528 427.5, 252.288 363.528, 252.288 363.528, 273.528 315, 273.528 315, 252.288 273.528, 252.288 273.528, 273.528 225, 273.528 225, 252.288 183.528, 252.288 183.528, 273.528 135, 273.528 135, 252.288 71.028, 252.288 71.028, 273.528 0, 273.528 0, 213.75 21.24, 213.75 21.24, 161.028 0, 161.028 0, 112.5 21.24, 112.5 21.24, 59.778 0, 59.778 "
       id="polygon10" />
  </g>
  <!-- Left-->
  <g
     transform="translate(1019.556, 22.5) "
     id="g12">
    <polygon
       style="stroke:#000000; fill:none; stroke-width:0.9"
       points="21.24, 0 71.028, 0 71.028, 21.24 135, 21.24 135, 0 183.528, 0 183.528, 21.24 247.5, 21.24 247.5, 0 297.288, 0 297.288, 56.25 318.528, 56.25 318.528, 116.028 297.288, 116.028 297.288, 157.5 318.528, 157.5 318.528, 217.278 297.288, 217.278 297.288, 273.528 247.5, 273.528 247.5, 252.288 183.528, 252.288 183.528, 273.528 135, 273.528 135, 252.288 71.028, 252.288 71.028, 273.528 21.24, 273.528 21.24, 217.278 0, 217.278 0, 157.5 21.24, 157.5 21.24, 116.028 0, 116.028 0, 56.25 21.24, 56.25 "
       id="polygon14" />
  </g>
  <!-- Right-->
  <g
     transform="translate(1019.556, 296.028) "
     id="g16">
    <polygon
       style="stroke:#000000; fill:none; stroke-width:0.9"
       points="21.24, 0 71.028, 0 71.028, 21.24 135, 21.24 135, 0 183.528, 0 183.528, 21.24 247.5, 21.24 247.5, 0 297.288, 0 297.288, 56.25 318.528, 56.25 318.528, 116.028 297.288, 116.028 297.288, 157.5 318.528, 157.5 318.528, 217.278 297.288, 217.278 297.288, 273.528 247.5, 273.528 247.5, 252.288 183.528, 252.288 183.528, 273.528 135, 273.528 135, 252.288 71.028, 252.288 71.028, 273.528 21.24, 273.528 21.24, 217.278 0, 217.278 0, 157.5 21.24, 157.5 21.24, 116.028 0, 116.028 0, 56.25 21.24, 56.25 "
       id="polygon18" />
  </g>
  <!-- Top-->
  <g
     transform="translate(22.5, 296.028) "
     id="g20">
    <polygon
       style="stroke:#000000; fill:none; stroke-width:0.9"
       points="21.24, 21.24 67.5, 21.24 67.5, 0 138.528, 0 138.528, 21.24 180, 21.24 180, 0 228.528, 0 228.528, 21.24 270, 21.24 270, 0 318.528, 0 318.528, 21.24 360, 21.24 360, 0 431.028, 0 431.028, 21.24 477.288, 21.24 477.288, 67.5 498.528, 67.5 498.528, 138.528 477.288, 138.528 477.288, 180 498.528, 180 498.528, 251.028 477.288, 251.028 477.288, 297.288 431.028, 297.288 431.028, 318.528 360, 318.528 360, 297.288 318.528, 297.288 318.528, 318.528 270, 318.528 270, 297.288 228.528, 297.288 228.528, 318.528 180, 318.528 180, 297.288 138.528, 297.288 138.528, 318.528 67.5, 318.528 67.5, 297.288 21.24, 297.288 21.24, 251.028 0, 251.028 0, 180 21.24, 180 21.24, 138.528 0, 138.528 0, 67.5 21.24, 67.5 "
       id="polygon22" />
  </g>
  <!-- Bottom-->
  <g
     transform="translate(521.028, 296.028) "
     id="g24">
    <polygon
       style="stroke:#000000; fill:none; stroke-width:0.9"
       points="21.24, 21.24 67.5, 21.24 67.5, 0 138.528, 0 138.528, 21.24 180, 21.24 180, 0 228.528, 0 228.528, 21.24 270, 21.24 270, 0 318.528, 0 318.528, 21.24 360, 21.24 360, 0 431.028, 0 431.028, 21.24 477.288, 21.24 477.288, 67.5 498.528, 67.5 498.528, 138.528 477.288, 138.528 477.288, 180 498.528, 180 498.528, 251.028 477.288, 251.028 477.288, 297.288 431.028, 297.288 431.028, 318.528 360, 318.528 360, 297.288 318.528, 297.288 318.528, 318.528 270, 318.528 270, 297.288 228.528, 297.288 228.528, 318.528 180, 318.528 180, 297.288 138.528, 297.288 138.528, 318.528 67.5, 318.528 67.5, 297.288 21.24, 297.288 21.24, 251.028 0, 251.028 0, 180 21.24, 180 21.24, 138.528 0, 138.528 0, 67.5 21.24, 67.5 "
       id="polygon26" />
  </g>
  <g
     inkscape:groupmode="layer"
     id="layer1"
     inkscape:label="Text">
    <text
       xml:space="preserve"
       style="font-size:25.5620575px;font-style:normal;font-weight:normal;line-height:125%;letter-spacing:0px;word-spacing:0px;fill:#00ffff;fill-opacity:1;stroke:none;font-family:Sans"
       x="748.26013"
       y="208.11263"
       id="text2999"
       sodipodi:linespacing="125%"
       transform="scale(0.96669008,1.0344577)"><tspan
         sodipodi:role="line"
         id="tspan3001"
         x="748.26013"
         y="208.11263">Camera</tspan></text>
  </g>
  <rect
     style="opacity:0;fill:#00ffff;stroke:#000000;stroke-opacity:1"
     id="rect3003"
     width="85.039368"
     height="88.58268"
     x="483.02753"
     y="-121.37615" />
  <rect
     style="opacity:0;fill:#00ffff;stroke:#000000;stroke-opacity:1"
     id="rect3005"
     width="85.039368"
     height="88.58268"
     x="249.77065"
     y="-179.17432" />
  <rect
     style="opacity:0;fill:#00ffff;stroke:#000000;stroke-opacity:1"
     id="rect3007"
     width="134.17432"
     height="140.36697"
     x="340.59634"
     y="-160.59634" />
  <rect
     style="opacity:0;fill:#00ffff;stroke:#000000;stroke-opacity:1"
     id="rect3009"
     width="85.039368"
     height="103.21101"
     x="689.44952"
     y="107.75229" />
  <rect
     style="opacity:0;fill:#00ffff;stroke:#000000;stroke-width:0.98860717;stroke-opacity:1"
     id="rect3011"
     width="84.050758"
     height="87.59407"
     x="716.27869"
     y="129.32457" />
  <rect
     style="opacity:0;fill:none;stroke:#000000;stroke-width:1.42925322;stroke-opacity:1"
     id="rect3013"
     width="83.610115"
     height="87.153427"
     x="643.07178"
     y="56.751549" />
  <g
     id="g3058">
    <rect
       id="rect3027"
       y="145.24081"
       x="756.4707"
       width="28.346457"
       height="28.346457"
       style="fill:none;stroke:#000000;stroke-width:0.1" />
    <circle
       transform="translate(726.35262,108.03609)"
       id="circle3029"
       r="3.5433071"
       cy="7.0866141"
       cx="7.0866141"
       sodipodi:cx="7.0866141"
       sodipodi:cy="7.0866141"
       sodipodi:rx="3.5433071"
       sodipodi:ry="3.5433071"
       d="m 10.629921,7.0866141 c 0,1.9569145 -1.5863924,3.5433069 -3.5433069,3.5433069 -1.9569144,0 -3.543307,-1.5863924 -3.543307,-3.5433069 0,-1.9569144 1.5863926,-3.543307 3.543307,-3.543307 1.9569145,0 3.5433069,1.5863926 3.5433069,3.543307 z"
       style="fill:none;stroke:#000000;stroke-width:0.1" />
    <circle
       transform="translate(726.35262,108.03609)"
       id="circle3031"
       r="3.5433071"
       cy="7.0866141"
       cx="81.496063"
       sodipodi:cx="81.496063"
       sodipodi:cy="7.0866141"
       sodipodi:rx="3.5433071"
       sodipodi:ry="3.5433071"
       d="m 85.03937,7.0866141 c 0,1.9569145 -1.586392,3.5433069 -3.543307,3.5433069 -1.956914,0 -3.543307,-1.5863924 -3.543307,-3.5433069 0,-1.9569144 1.586393,-3.543307 3.543307,-3.543307 1.956915,0 3.543307,1.5863926 3.543307,3.543307 z"
       style="fill:none;stroke:#000000;stroke-width:0.1" />
    <circle
       transform="translate(726.35262,108.03609)"
       id="circle3033"
       r="3.5433071"
       cy="51.377953"
       cx="7.0866141"
       sodipodi:cx="7.0866141"
       sodipodi:cy="51.377953"
       sodipodi:rx="3.5433071"
       sodipodi:ry="3.5433071"
       d="m 10.629921,51.377953 c 0,1.956914 -1.5863924,3.543307 -3.5433069,3.543307 -1.9569144,0 -3.543307,-1.586393 -3.543307,-3.543307 0,-1.956915 1.5863926,-3.543307 3.543307,-3.543307 1.9569145,0 3.5433069,1.586392 3.5433069,3.543307 z"
       style="fill:none;stroke:#000000;stroke-width:0.1" />
    <circle
       transform="translate(726.35262,108.03609)"
       id="circle3035"
       r="3.5433071"
       cy="51.377953"
       cx="81.496063"
       sodipodi:cx="81.496063"
       sodipodi:cy="51.377953"
       sodipodi:rx="3.5433071"
       sodipodi:ry="3.5433071"
       d="m 85.03937,51.377953 c 0,1.956914 -1.586392,3.543307 -3.543307,3.543307 -1.956914,0 -3.543307,-1.586393 -3.543307,-3.543307 0,-1.956915 1.586393,-3.543307 3.543307,-3.543307 1.956915,0 3.543307,1.586392 3.543307,3.543307 z"
       style="fill:none;stroke:#000000;stroke-width:0.1" />
  </g>
  <circle
     style="fill:none;stroke:#000000;stroke-width:0.1"
     d="m 17.273621,12.401574 c 0,2.690757 -2.18129,4.872047 -4.872047,4.872047 -2.6907571,0 -4.8720468,-2.18129 -4.8720468,-4.872047 0,-2.6907571 2.1812897,-4.8720468 4.8720468,-4.8720468 2.690757,0 4.872047,2.1812897 4.872047,4.8720468 z"
     sodipodi:ry="4.8720469"
     sodipodi:rx="4.8720469"
     sodipodi:cy="12.401574"
     sodipodi:cx="12.401574"
     cx="12.401574"
     cy="12.401574"
     r="4.8720469"
     id="circle3080"
     transform="translate(626.4047,369.04554)" />
  <circle
     style="fill:none;stroke:#000000;stroke-width:0.1"
     d="m 216.58465,12.401574 c 0,2.690757 -2.18129,4.872047 -4.87205,4.872047 -2.69076,0 -4.87205,-2.18129 -4.87205,-4.872047 0,-2.6907571 2.18129,-4.8720468 4.87205,-4.8720468 2.69076,0 4.87205,2.1812897 4.87205,4.8720468 z"
     sodipodi:ry="4.8720469"
     sodipodi:rx="4.8720469"
     sodipodi:cy="12.401574"
     sodipodi:cx="211.7126"
     cx="211.7126"
     cy="12.401574"
     r="4.8720469"
     id="circle3082"
     transform="translate(626.4047,369.04554)" />
  <circle
     style="fill:none;stroke:#000000;stroke-width:0.1"
     d="m 17.273621,179.82283 c 0,2.69076 -2.18129,4.87205 -4.872047,4.87205 -2.6907571,0 -4.8720468,-2.18129 -4.8720468,-4.87205 0,-2.69076 2.1812897,-4.87205 4.8720468,-4.87205 2.690757,0 4.872047,2.18129 4.872047,4.87205 z"
     sodipodi:ry="4.8720469"
     sodipodi:rx="4.8720469"
     sodipodi:cy="179.82283"
     sodipodi:cx="12.401574"
     cx="12.401574"
     cy="179.82283"
     r="4.8720469"
     id="circle3084"
     transform="translate(626.4047,369.04554)" />
  <circle
     style="fill:none;stroke:#000000;stroke-width:0.1"
     d="m 216.58465,179.82283 c 0,2.69076 -2.18129,4.87205 -4.87205,4.87205 -2.69076,0 -4.87205,-2.18129 -4.87205,-4.87205 0,-2.69076 2.18129,-4.87205 4.87205,-4.87205 2.69076,0 4.87205,2.18129 4.87205,4.87205 z"
     sodipodi:ry="4.8720469"
     sodipodi:rx="4.8720469"
     sodipodi:cy="179.82283"
     sodipodi:cx="211.7126"
     cx="211.7126"
     cy="179.82283"
     r="4.8720469"
     id="circle3086"
     transform="translate(626.4047,369.04554)" />
  <g
     id="g3065">
    <circle
       transform="translate(1135.8155,55.995504)"
       id="circle3037"
       r="3.5433071"
       cy="7.0866141"
       cx="7.0866141"
       sodipodi:cx="7.0866141"
       sodipodi:cy="7.0866141"
       sodipodi:rx="3.5433071"
       sodipodi:ry="3.5433071"
       d="m 10.629921,7.0866141 c 0,1.9569145 -1.5863924,3.5433069 -3.5433069,3.5433069 -1.9569144,0 -3.543307,-1.5863924 -3.543307,-3.5433069 0,-1.9569144 1.5863926,-3.543307 3.543307,-3.543307 1.9569145,0 3.5433069,1.5863926 3.5433069,3.543307 z"
       style="fill:none;stroke:#000000;stroke-width:0.1" />
    <circle
       transform="translate(1135.8155,55.995504)"
       id="circle3039"
       r="3.5433071"
       cy="7.0866141"
       cx="85.039368"
       sodipodi:cx="85.039368"
       sodipodi:cy="7.0866141"
       sodipodi:rx="3.5433071"
       sodipodi:ry="3.5433071"
       d="m 88.582675,7.0866141 c 0,1.9569145 -1.586393,3.5433069 -3.543307,3.5433069 -1.956915,0 -3.543307,-1.5863924 -3.543307,-3.5433069 0,-1.9569144 1.586392,-3.543307 3.543307,-3.543307 1.956914,0 3.543307,1.5863926 3.543307,3.543307 z"
       style="fill:none;stroke:#000000;stroke-width:0.1" />
  </g>
  <text
     xml:space="preserve"
     style="font-size:30.38295937px;font-style:normal;font-weight:normal;line-height:125%;letter-spacing:0px;word-spacing:0px;fill:#00ffff;fill-opacity:1;stroke:none;font-family:Sans"
     x="1144.3793"
     y="110.63467"
     id="text3054"
     sodipodi:linespacing="125%"
     transform="scale(1.0055189,0.9945114)"><tspan
       sodipodi:role="line"
       id="tspan3056"
       x="1144.3793"
       y="110.63467">GPS</tspan></text>
  <g
     id="g3114">
    <circle
       transform="translate(1136.9019,324.28264)"
       id="circle3093"
       r="3.5433071"
       cy="7.0866141"
       cx="7.0866141"
       sodipodi:cx="7.0866141"
       sodipodi:cy="7.0866141"
       sodipodi:rx="3.5433071"
       sodipodi:ry="3.5433071"
       d="m 10.629921,7.0866141 c 0,1.9569145 -1.5863924,3.5433069 -3.5433069,3.5433069 -1.9569144,0 -3.543307,-1.5863924 -3.543307,-3.5433069 0,-1.9569144 1.5863926,-3.543307 3.543307,-3.543307 1.9569145,0 3.5433069,1.5863926 3.5433069,3.543307 z"
       style="fill:none;stroke:#000000;stroke-width:0.1" />
    <circle
       transform="translate(1136.9019,324.28264)"
       id="circle3095"
       r="3.5433071"
       cy="7.0866141"
       cx="74.409447"
       sodipodi:cx="74.409447"
       sodipodi:cy="7.0866141"
       sodipodi:rx="3.5433071"
       sodipodi:ry="3.5433071"
       d="m 77.952754,7.0866141 c 0,1.9569145 -1.586393,3.5433069 -3.543307,3.5433069 -1.956915,0 -3.543307,-1.5863924 -3.543307,-3.5433069 0,-1.9569144 1.586392,-3.543307 3.543307,-3.543307 1.956914,0 3.543307,1.5863926 3.543307,3.543307 z"
       style="fill:none;stroke:#000000;stroke-width:0.1" />
  </g>
  <text
     xml:space="preserve"
     style="font-size:28.47248459px;font-style:normal;font-weight:normal;line-height:125%;letter-spacing:0px;word-spacing:0px;fill:#00ffff;fill-opacity:1;stroke:none;font-family:Sans"
     x="1107.9895"
     y="386.86862"
     id="text3110"
     sodipodi:linespacing="125%"
     transform="scale(1.027645,0.97309868)"><tspan
       sodipodi:role="line"
       id="tspan3112"
       x="1107.9895"
       y="386.86862">Accel</tspan></text>
  <text
     xml:space="preserve"
     style="font-size:28.74976921px;font-style:normal;font-weight:normal;line-height:125%;letter-spacing:0px;word-spacing:0px;fill:#00ffff;fill-opacity:1;stroke:none;font-family:Sans"
     x="606.97687"
     y="538.40411"
     id="text3029"
     sodipodi:linespacing="125%"
     transform="scale(1.1709747,0.8539894)"><tspan
       sodipodi:role="line"
       id="tspan3031"
       x="606.97687"
       y="538.40411">Rpi</tspan></text>
  <path
     sodipodi:type="arc"
     style="opacity:0;fill:#00ffff;stroke:#000000;stroke-opacity:1"
     id="path3026"
     sodipodi:cx="360.29901"
     sodipodi:cy="190.46512"
     sodipodi:rx="73.255814"
     sodipodi:ry="47.84053"
     d="m 433.55482,190.46512 a 73.255814,47.84053 0 1 1 -146.51162,0 73.255814,47.84053 0 1 1 146.51162,0 z" />
  <path
     sodipodi:type="arc"
     style="opacity:0;fill:#00ffff;stroke:#000000;stroke-opacity:1"
     id="path3028"
     sodipodi:cx="373.00665"
     sodipodi:cy="47.691032"
     sodipodi:rx="133.80399"
     sodipodi:ry="82.973419"
     d="m 506.30147,54.922642 a 133.80399,82.973419 0 1 1 0.50917,-7.23161 l -133.80399,0 z"
     sodipodi:start="0.087266463"
     sodipodi:end="6.2831853" />
  <circle
     style="fill:none;stroke:#000000;stroke-width:0.1"
     d="m 17.273621,12.401574 c 0,2.690757 -2.18129,4.872047 -4.872047,4.872047 -2.6907571,0 -4.8720468,-2.18129 -4.8720468,-4.872047 0,-2.6907571 2.1812897,-4.8720468 4.8720468,-4.8720468 2.690757,0 4.872047,2.1812897 4.872047,4.8720468 z"
     sodipodi:ry="4.8720469"
     sodipodi:rx="4.8720469"
     sodipodi:cy="12.401574"
     sodipodi:cx="12.401574"
     cx="12.401574"
     cy="12.401574"
     r="4.8720469"
     id="circle3051"
     transform="matrix(1.7997356,0,0,1.7951179,373.83499,122.72115)" />
  <text
     xml:space="preserve"
     style="font-size:31.053339px;font-style:normal;font-weight:normal;line-height:125%;letter-spacing:0px;word-spacing:0px;fill:#00ffff;fill-opacity:1;stroke:none;font-family:Sans"
     x="373.0585"
     y="179.12723"
     id="text3076"
     sodipodi:linespacing="125%"
     transform="scale(0.91145373,1.0971484)"><tspan
       sodipodi:role="line"
       id="tspan3078"
       x="373.0585"
       y="179.12723">GPS Ant</tspan></text>
  <circle
     style="fill:none;stroke:#000000;stroke-width:0.1"
     d="m 17.273621,12.401574 c 0,2.690757 -2.18129,4.872047 -4.872047,4.872047 -2.6907571,0 -4.8720468,-2.18129 -4.8720468,-4.872047 0,-2.6907571 2.1812897,-4.8720468 4.8720468,-4.8720468 2.690757,0 4.872047,2.1812897 4.872047,4.8720468 z"
     sodipodi:ry="4.8720469"
     sodipodi:rx="4.8720469"
     sodipodi:cy="12.401574"
     sodipodi:cx="12.401574"
     cx="12.401574"
     cy="12.401574"
     r="4.8720469"
     id="circle3051-1"
     transform="matrix(3.5994712,0,0,3.5902358,70.365336,107.20443)" />
  <text
     xml:space="preserve"
     style="font-size:25.35921097px;font-style:normal;font-weight:normal;line-height:125%;letter-spacing:0px;word-spacing:0px;fill:#00ffff;fill-opacity:1;stroke:none;font-family:Sans"
     x="58.24754"
     y="124.02594"
     id="text3098"
     sodipodi:linespacing="125%"><tspan
       sodipodi:role="line"
       id="tspan3100"
       x="58.24754"
       y="124.02594">RPi Power</tspan></text>
</svg>
